<svg width="636" height="373" viewBox="0 0 636 373" fill="none" xmlns="http://www.w3.org/2000/svg">
<path d="M402.898 36.9324C404.955 36.9324 406.627 35.2605 406.627 33.2033V25.9845C406.627 16.646 414.236 9.03658 423.601 9.03658C432.971 9.03658 440.58 16.646 440.58 25.9845V33.2033C440.58 35.2605 442.252 36.9324 444.309 36.9324C446.366 36.9324 448.038 35.2605 448.038 33.2033V27.0001C448.038 13.9585 438.252 2.50012 425.215 1.63554C411.043 0.713666 399.168 11.9897 399.168 25.9845V33.2033C399.168 35.2605 400.835 36.9324 402.898 36.9324Z" fill="#0A1A33"/>
<path d="M481.335 133.901L473.132 54.0886C472.476 47.7345 467.132 42.9324 460.747 42.9324H386.455C380.07 42.9324 374.731 47.7657 374.075 54.0886L372.012 73.9584C370.643 87.297 383.325 97.7084 396.122 93.8022L403.075 91.6824C410.981 89.2657 419.815 93.2657 422.919 102.037C423.992 105.078 423.841 108.422 422.887 111.526L419.815 121.552C415.575 135.396 425.929 149.386 440.403 149.386H467.372C475.7 149.359 482.2 142.167 481.335 133.901Z" fill="#0A65FC"/>
<path d="M405.7 100.219L365.513 112.479C359.664 114.271 359.247 122.385 364.882 124.771L374.46 128.802C379.533 130.948 383.591 134.979 385.742 140.078L389.768 149.656C392.153 155.297 400.273 154.88 402.059 149.031L414.325 108.838C415.966 103.557 411.013 98.6041 405.7 100.219Z" fill="#0A1A33"/>
<path d="M78.3237 267.714V134.464H131.678V160.214H105.47V186.11H130.595V211.256H105.47V241.819H133.386V267.714H78.3237Z" fill="#0A65FC"/>
<path d="M138.498 267.715V251.11L166.727 175.569H139.748V154.173H194.811V172.631L168.123 247.402H195.123V267.715H138.498Z" fill="#0A65FC"/>
<path d="M199.452 269.423H212.494C214.353 269.423 215.285 268.642 215.285 267.09C215.285 266.371 215.228 265.798 215.119 265.381L197.452 154.173H223.348L228.473 209.548L230.952 237.777L233.89 209.548L239.952 154.173H266.015L244.91 273.61C244.187 278.053 242.713 281.329 240.494 283.444C238.27 285.569 234.775 286.631 230.015 286.631H199.452V269.423Z" fill="#0A65FC"/>
<path d="M273.602 267.714V134.464H314.248L325.415 215.756L336.581 134.464H377.54V267.714H353.185V171.694L337.831 267.714H313.935L297.644 171.694V267.714H273.602Z" fill="#0A65FC"/>
<mask id="mask0_261_1201" style="mask-type:luminance" maskUnits="userSpaceOnUse" x="96" y="300" width="445" height="46">
<path d="M540.08 300H96.0801V345.333H540.08V300Z" fill="white"/>
</mask>
<g mask="url(#mask0_261_1201)">
<path d="M120.912 336.196L117.85 328.342H105.6L102.516 336.196H98.7456L109.704 309.321H113.85L124.641 336.196H120.912ZM111.725 312.071L111.558 312.592C111.235 313.649 110.766 315.003 110.141 316.654L106.704 325.487H116.766L113.308 316.633C112.944 315.748 112.589 314.753 112.246 313.654L111.725 312.071Z" fill="#0A1A33"/>
<path d="M145.352 336.196L130.956 313.3L131.06 315.154L131.143 318.342V336.196H127.914V309.321H132.143L146.685 332.362C146.529 329.878 146.456 328.071 146.456 326.946V309.321H149.727V336.196H145.352Z" fill="#0A1A33"/>
<path d="M167.716 325.05V336.196H164.091V325.05L153.758 309.321H157.758L165.945 322.112L174.091 309.321H178.091L167.716 325.05Z" fill="#0A1A33"/>
<path d="M192.676 312.3V336.196H189.051V312.3H179.822V309.321H201.906V312.3H192.676Z" fill="#0A1A33"/>
<path d="M224.174 336.196V323.737H209.653V336.196H206.007V309.321H209.653V320.696H224.174V309.321H227.819V336.196H224.174Z" fill="#0A1A33"/>
<path d="M234.601 336.196V309.321H238.246V336.196H234.601Z" fill="#0A1A33"/>
<path d="M262.49 336.196L248.094 313.3L248.199 315.154L248.282 318.342V336.196H245.053V309.321H249.282L263.824 332.362C263.667 329.878 263.594 328.071 263.594 326.946V309.321H266.865V336.196H262.49Z" fill="#0A1A33"/>
<path d="M272.001 322.633C272.001 318.274 273.168 314.899 275.501 312.508C277.845 310.123 281.136 308.925 285.376 308.925C288.345 308.925 290.761 309.425 292.626 310.425C294.485 311.425 295.918 313.04 296.918 315.258L293.438 316.279C292.673 314.753 291.616 313.644 290.272 312.946C288.938 312.253 287.277 311.904 285.293 311.904C282.178 311.904 279.803 312.842 278.168 314.717C276.527 316.592 275.709 319.232 275.709 322.633C275.709 326.04 276.574 328.717 278.313 330.675C280.063 332.633 282.47 333.613 285.543 333.613C287.303 333.613 288.944 333.352 290.459 332.821C291.97 332.279 293.199 331.56 294.147 330.654V325.8H286.126V322.758H297.501V332.008C296.084 333.467 294.34 334.592 292.272 335.383C290.199 336.175 287.959 336.571 285.543 336.571C282.735 336.571 280.313 336.019 278.272 334.904C276.241 333.779 274.688 332.17 273.605 330.071C272.532 327.962 272.001 325.482 272.001 322.633Z" fill="#0A1A33"/>
<path d="M333.512 336.196L330.45 328.342H318.2L315.117 336.196H311.346L322.304 309.321H326.45L337.242 336.196H333.512ZM324.325 312.071L324.158 312.592C323.835 313.649 323.367 315.003 322.742 316.654L319.304 325.487H329.367L325.908 316.633C325.544 315.748 325.189 314.753 324.846 313.654L324.325 312.071Z" fill="#0A1A33"/>
<path d="M357.952 336.196L343.556 313.3L343.66 315.154L343.743 318.342V336.196H340.514V309.321H344.743L359.285 332.362C359.129 329.878 359.056 328.071 359.056 326.946V309.321H362.327V336.196H357.952Z" fill="#0A1A33"/>
<path d="M380.316 325.05V336.196H376.691V325.05L366.358 309.321H370.358L378.545 322.112L386.691 309.321H390.691L380.316 325.05Z" fill="#0A1A33"/>
<path d="M420.36 336.196H416.026L411.36 319.133C411.052 318.066 410.61 316.149 410.026 313.383C409.693 314.857 409.407 316.092 409.172 317.092C408.948 318.081 407.219 324.446 403.985 336.196H399.631L391.714 309.321H395.506L400.339 326.383C400.907 328.524 401.433 330.727 401.922 332.987C402.224 331.586 402.578 330.06 402.985 328.404C403.386 326.753 405.151 320.394 408.276 309.321H411.756L416.443 326.05C417.151 328.79 417.703 331.102 418.11 332.987L418.297 332.321C418.631 330.862 418.901 329.675 419.11 328.758C419.328 327.831 421.12 321.352 424.485 309.321H428.276L420.36 336.196Z" fill="#0A1A33"/>
<path d="M449.776 336.196V323.737H435.255V336.196H431.609V309.321H435.255V320.696H449.776V309.321H453.422V336.196H449.776Z" fill="#0A1A33"/>
<path d="M459.808 336.196V309.321H480.203V312.3H463.453V320.925H479.058V323.862H463.453V333.217H480.974V336.196H459.808Z" fill="#0A1A33"/>
<path d="M504.851 336.196L497.872 325.029H489.497V336.196H485.851V309.321H498.497C501.523 309.321 503.856 310.003 505.497 311.362C507.148 312.711 507.976 314.592 507.976 317.008C507.976 319.008 507.393 320.691 506.226 322.05C505.059 323.415 503.455 324.269 501.414 324.612L509.039 336.196H504.851ZM504.309 317.05C504.309 315.482 503.773 314.29 502.705 313.467C501.648 312.649 500.122 312.237 498.122 312.237H489.497V322.154H498.289C500.205 322.154 501.684 321.711 502.726 320.821C503.778 319.92 504.309 318.665 504.309 317.05Z" fill="#0A1A33"/>
<path d="M514.049 336.196V309.321H534.445V312.3H517.695V320.925H533.299V323.862H517.695V333.217H535.215V336.196H514.049Z" fill="#0A1A33"/>
</g>
<path d="M410.362 268.965C401.57 268.965 395.539 266.043 392.278 260.194C389.028 254.35 387.403 245.996 387.403 235.131C387.403 226.246 388.56 219.423 390.882 214.673C393.216 209.912 396.45 206.418 400.591 204.194C404.726 201.975 411.034 199.517 419.507 196.819L426.966 194.34V182.715C426.966 179.715 426.367 177.418 425.174 175.819C423.976 174.209 422.554 173.402 420.903 173.402C419.455 173.402 418.195 174.079 417.112 175.423C416.028 176.756 415.487 178.563 415.487 180.84V187.673H389.112V183.944C389.112 172.777 391.721 164.819 396.945 160.069C402.164 155.308 410.674 152.923 422.466 152.923C431.867 152.923 439.513 155.381 445.403 160.298C451.304 165.204 454.257 172.152 454.257 181.152V267.715H427.278V254.215C425.929 258.871 423.778 262.496 420.82 265.09C417.872 267.673 414.388 268.965 410.362 268.965ZM421.07 247.86C423.138 247.86 424.612 247.006 425.487 245.298C426.362 243.59 426.799 241.496 426.799 239.006V207.381C422.768 208.923 419.799 210.892 417.882 213.277C415.966 215.652 415.007 218.959 415.007 223.194V237.777C415.007 244.501 417.028 247.86 421.07 247.86Z" fill="#0A1A33"/>
<path d="M464.653 154.173H491.799V166.735C493.132 162.277 495.476 158.839 498.84 156.423C502.2 153.996 506.366 152.777 511.34 152.777V175.423C507.507 175.423 503.288 175.964 498.694 177.048C494.096 178.131 491.799 179.397 491.799 180.839V267.714H464.653V154.173Z" fill="#0A1A33"/>
<path d="M541.426 268.964C534.285 268.964 529.368 267.464 526.676 264.464C523.993 261.464 522.655 256.652 522.655 250.027V179.131H515.051V158.506H522.655V134.464H549.03V158.506H556.78V179.131H549.03V242.902C549.03 244.86 549.181 246.308 549.488 247.235C549.79 248.167 550.618 248.631 551.967 248.631C553.009 248.631 553.993 248.584 554.926 248.485C555.853 248.376 556.473 248.319 556.78 248.319V266.944C555.223 267.36 552.973 267.798 550.03 268.256C547.082 268.725 544.217 268.964 541.426 268.964Z" fill="#0A1A33"/>
</svg>
