<svg width="17" height="17" viewBox="0 0 17 17" fill="none" xmlns="http://www.w3.org/2000/svg">
<path d="M8.50008 15.6666C4.29966 15.6666 0.885498 12.4533 0.885498 8.49992C0.885498 4.54659 4.29966 1.33325 8.50008 1.33325C12.7005 1.33325 16.1147 4.54659 16.1147 8.49992C16.1147 12.4533 12.7005 15.6666 8.50008 15.6666ZM8.50008 2.33325C4.88758 2.33325 1.948 5.09992 1.948 8.49992C1.948 11.8999 4.88758 14.6666 8.50008 14.6666C12.1126 14.6666 15.0522 11.8999 15.0522 8.49992C15.0522 5.09992 12.1126 2.33325 8.50008 2.33325Z" fill="#E6EFFF"/>
<path d="M7.49427 10.8867C7.3526 10.8867 7.21802 10.8334 7.11885 10.7401L5.11427 8.8534C4.90885 8.66007 4.90885 8.34007 5.11427 8.14673C5.31968 7.9534 5.65968 7.9534 5.8651 8.14673L7.49427 9.68007L11.1351 6.2534C11.3405 6.06007 11.6805 6.06007 11.8859 6.2534C12.0914 6.44673 12.0914 6.76673 11.8859 6.96006L7.86968 10.7401C7.77052 10.8334 7.63593 10.8867 7.49427 10.8867Z" fill="#E6EFFF"/>
</svg>
