<svg width="512" height="512" viewBox="0 0 512 512" fill="none" xmlns="http://www.w3.org/2000/svg">
<path d="M0 256C0 114.615 114.615 0 256 0V0C397.385 0 512 114.615 512 256V256C512 397.385 397.385 512 256 512V512C114.615 512 0 397.385 0 256V256Z" fill="white"/>
<path d="M153.599 208.411H117V178H224.821V208.411H188.339V331.214H153.599V208.411Z" fill="#06948B"/>
<path d="M246.61 178H289.25C297.616 178 305.478 179.122 312.836 181.366C320.195 183.61 326.159 187.402 330.729 192.741C335.299 198.08 337.584 205.509 337.584 215.027C337.584 221.449 336.306 227.292 333.75 232.554C331.271 237.738 328.173 241.955 324.455 245.205C320.737 248.455 317.058 250.39 313.417 251.009C316.361 251.241 319.614 252.17 323.177 253.795C326.817 255.42 330.264 257.741 333.517 260.759C336.848 263.777 339.559 267.568 341.65 272.134C343.819 276.622 344.904 281.961 344.904 288.152C344.904 296.509 343.2 303.938 339.791 310.438C336.383 316.938 331.194 322.045 324.222 325.759C317.329 329.396 308.576 331.214 297.964 331.214H246.61V178ZM266.362 314.616H295.989C303.348 314.616 309.041 313.339 313.069 310.786C317.174 308.155 320.04 304.75 321.666 300.571C323.37 296.393 324.222 291.943 324.222 287.223C324.222 279.408 321.666 273.101 316.554 268.304C311.442 263.506 304.045 261.107 294.363 261.107H266.362V314.616ZM266.362 244.857H292.039C297.926 244.857 302.767 243.58 306.562 241.027C310.358 238.396 313.185 235.068 315.044 231.045C316.903 226.943 317.832 222.726 317.832 218.393C317.832 209.494 315.199 203.304 309.932 199.821C304.742 196.339 297.771 194.598 289.018 194.598H266.362V244.857Z" fill="#06948B"/>
<path d="M391.315 334C387.055 334 383.375 332.491 380.277 329.473C377.256 326.378 375.746 322.702 375.746 318.446C375.746 314.036 377.256 310.321 380.277 307.304C383.375 304.208 387.055 302.661 391.315 302.661C395.73 302.661 399.448 304.208 402.469 307.304C405.49 310.321 407 314.036 407 318.446C407 322.702 405.49 326.378 402.469 329.473C399.448 332.491 395.73 334 391.315 334Z" fill="#06948B"/>
</svg>
